# xmcd
#
# Track frame offsets: 
#        150
#        18047
#        34831
#        63816
#        85963
#        114321
#        127283
#        148662
#
# Disc length: 2407 seconds
#
# Revision: 0
# Processed by: cddbd v1.5.2PL0 Copyright (c) Steve Scherf et al.
# Submitted via: ExactAudioCopy v1.3
#
DISCID=66096508
DTITLE=Buddy Guy - This Is Buddy Guy
DYEAR=1968
DGENRE=Electric Blues, Chicago Blues
TTITLE0=I Got My Eyes On You
TTITLE1=The Things I Used To Do
TTITLE2=(You Give Me) Fever
TTITLE3=Knock On Wood
TTITLE4=I Had A Dream Last
TTITLE5=24 Hours Of The Day
TTITLE6=You Were Wrong
TTITLE7=I'm Not The Best
EXTD=
EXTT0=
EXTT1=
EXTT2=
EXTT3=
EXTT4=
EXTT5=
EXTT6=
EXTT7=
PLAYORDER=
